<?xml version="1.0" encoding="UTF-8" standalone="no"?>
<!DOCTYPE svg PUBLIC "-//W3C//DTD SVG 1.1//EN" "http://www.w3.org/Graphics/SVG/1.1/DTD/svg11.dtd">
<svg xmlns="http://www.w3.org/2000/svg" version="1.1" viewBox="0.00 0.00 1448.00 1448.00">
<path fill="#fcfdfd" d="
  M 559.58 499.71
  C 505.49 550.22 484.64 629.92 511.93 699.63
  Q 529.65 744.88 565.57 776.41
  C 589.85 797.73 622.00 811.37 654.07 817.42
  Q 659.09 818.37 664.99 818.27
  Q 690.78 817.82 716.56 818.42
  Q 727.04 818.66 734.32 820.18
  C 756.65 824.82 777.41 836.23 798.01 847.75
  Q 800.01 848.87 801.23 850.12
  Q 801.82 850.72 800.98 850.72
  C 751.40 850.56 701.81 851.34 652.25 850.66
  Q 643.30 850.53 632.70 847.34
  Q 616.24 842.38 600.48 835.50
  Q 553.04 814.82 519.22 776.36
  C 500.38 754.93 485.87 728.92 476.35 702.03
  Q 472.34 690.73 470.06 678.98
  C 463.50 645.28 464.21 609.68 473.71 576.68
  C 493.90 506.49 547.52 451.66 616.92 428.70
  C 638.28 421.63 661.21 419.75 683.99 420.04
  Q 688.76 420.10 692.71 421.71
  Q 693.42 422.00 692.79 422.44
  C 690.22 424.24 687.03 425.17 684.62 426.23
  C 668.22 433.41 653.99 443.19 639.42 454.43
  C 636.30 456.85 633.19 458.18 628.95 459.19
  Q 620.86 461.12 613.29 464.56
  C 593.85 473.40 575.20 485.13 559.58 499.71
  Z"
/>
<path fill="#fcfdfd" d="
  M 868.87 424.66
  C 900.75 434.08 929.33 453.90 950.19 479.83
  Q 955.34 486.24 963.31 498.61
  Q 974.24 515.59 978.39 535.35
  Q 978.78 537.18 978.29 538.00
  A 1.19 1.19 0.0 0 1 976.13 537.73
  C 969.62 515.78 957.79 498.58 941.10 483.50
  C 907.21 452.90 865.83 450.09 822.01 452.85
  Q 797.39 454.40 774.16 460.98
  A 2.76 2.75 61.7 0 1 771.32 460.12
  C 760.01 446.91 745.84 435.24 729.99 427.71
  Q 723.68 424.72 717.33 422.08
  Q 715.64 421.37 717.40 420.86
  Q 718.24 420.61 720.00 420.61
  Q 814.25 420.21 839.24 420.31
  Q 854.35 420.37 868.87 424.66
  Z"
/>
<path fill="#fcfdfd" d="
  M 648.96 573.05
  Q 632.17 629.43 658.54 683.26
  C 675.50 717.89 704.25 745.95 738.29 763.61
  C 749.82 769.59 764.60 775.14 777.75 780.66
  C 796.49 788.53 814.89 798.34 831.59 809.14
  Q 857.53 825.91 876.33 850.27
  A 0.42 0.42 0.0 0 1 876.00 850.95
  Q 853.49 851.19 830.87 850.39
  Q 830.08 850.36 829.04 848.98
  C 811.16 825.31 783.58 808.09 755.47 799.60
  Q 742.14 795.58 728.53 792.58
  C 700.39 786.37 674.56 777.76 649.88 761.09
  C 605.32 731.02 578.98 683.35 573.95 630.23
  C 568.64 574.17 592.73 521.90 636.61 487.13
  C 654.49 472.96 674.24 460.68 694.97 451.11
  Q 700.12 448.73 705.48 446.87
  C 708.49 445.83 710.89 446.71 713.51 448.05
  Q 732.44 457.80 749.61 470.39
  Q 753.64 473.35 756.97 476.82
  A 0.62 0.61 -31.7 0 1 756.73 477.82
  Q 746.45 481.53 735.95 485.21
  Q 720.50 490.62 703.63 501.40
  C 677.23 518.28 657.88 543.08 648.96 573.05
  Z"
/>
<path fill="#fcfdfd" d="
  M 866.63 590.56
  Q 866.37 591.76 866.38 594.25
  Q 866.77 717.85 866.26 772.25
  C 866.19 779.99 855.46 781.32 852.33 774.64
  Q 851.07 771.96 851.06 767.50
  Q 850.77 674.37 851.11 581.25
  Q 851.12 578.81 849.18 577.31
  Q 834.94 566.32 822.18 553.65
  Q 821.81 553.28 821.38 553.58
  C 818.25 555.77 816.03 555.31 812.47 555.40
  Q 774.01 556.33 735.55 555.90
  C 730.92 555.85 726.64 555.82 725.52 550.25
  C 724.05 542.95 731.02 540.89 736.99 540.91
  Q 771.50 541.03 806.00 540.85
  Q 807.13 540.84 807.73 540.56
  A 0.90 0.90 0.0 0 0 807.99 539.10
  C 794.51 525.62 782.99 511.14 774.33 494.32
  A 0.18 0.18 0.0 0 1 774.60 494.10
  C 782.59 500.75 789.93 508.47 797.97 515.28
  Q 809.06 524.70 813.35 526.68
  C 828.68 533.77 846.83 522.36 852.16 507.25
  C 854.81 499.72 854.98 490.74 854.28 482.49
  Q 854.02 479.51 854.55 476.57
  Q 854.65 476.06 855.17 476.06
  Q 862.75 476.14 865.01 476.52
  C 868.49 477.10 868.53 484.68 868.52 487.25
  Q 868.43 513.75 868.75 539.89
  Q 868.76 540.82 869.70 540.83
  Q 924.37 541.09 978.50 541.07
  C 984.89 541.07 985.39 548.48 982.79 552.40
  C 980.54 555.81 976.58 556.06 972.75 556.09
  Q 922.38 556.46 872.00 556.34
  Q 870.88 556.33 869.24 556.60
  Q 868.79 556.68 868.64 557.10
  Q 866.72 562.36 869.98 565.79
  Q 882.08 578.54 893.97 591.48
  C 896.49 594.22 901.98 601.75 897.09 604.77
  Q 896.66 605.04 896.16 604.92
  Q 894.14 604.44 891.58 603.14
  Q 880.10 597.29 869.14 589.59
  Q 867.15 588.19 866.63 590.56
  Z
  M 853.38 564.51
  L 853.48 524.88
  A 1.04 0.95 87.6 0 0 852.43 523.83
  Q 852.35 523.83 851.89 524.38
  Q 846.09 531.29 838.89 536.72
  C 827.24 545.52 843.55 559.14 850.34 564.18
  Q 851.32 564.91 852.24 565.28
  A 0.83 0.83 0.0 0 0 853.38 564.51
  Z"
/>
<path fill="#fcfdfd" d="
  M 788.13 900.85
  L 788.50 898.10
  Q 788.61 897.28 789.43 897.44
  L 793.83 898.32
  A 0.92 0.91 6.1 0 1 794.57 899.23
  L 794.49 905.86
  Q 794.49 906.63 793.71 906.63
  C 785.33 906.59 781.17 903.86 775.76 911.99
  C 769.76 921.00 784.69 922.92 789.79 922.77
  A 0.72 0.72 0.0 0 1 790.53 923.45
  L 790.75 927.48
  A 0.82 0.81 82.7 0 1 790.10 928.33
  C 782.39 929.97 773.41 928.51 769.12 921.41
  C 763.47 912.06 773.28 902.80 781.97 902.08
  Q 785.71 901.77 787.42 901.56
  Q 788.05 901.48 788.13 900.85
  Z"
/>
<path fill="#fcfdfd" d="
  M 976.97 941.05
  C 991.49 930.42 1021.99 930.84 1030.07 950.15
  Q 1040.23 974.44 1034.69 999.25
  C 1031.51 1013.47 1026.20 1024.60 1011.77 1028.22
  C 1001.32 1030.84 986.52 1030.93 977.81 1024.59
  C 970.77 1019.47 966.78 1011.38 965.02 1002.75
  C 961.48 985.38 960.47 953.11 976.97 941.05
  Z
  M 977.03 968.62
  C 976.08 981.18 975.90 998.89 981.81 1010.18
  C 986.68 1019.49 998.34 1019.78 1007.27 1017.44
  Q 1015.02 1015.40 1017.80 1007.66
  C 1022.13 995.63 1021.94 981.34 1020.94 968.75
  Q 1020.60 964.47 1018.13 957.02
  Q 1015.18 948.10 1007.00 945.69
  C 999.88 943.59 987.52 944.41 982.79 951.31
  Q 977.79 958.61 977.03 968.62
  Z"
/>
<path fill="#fcfdfd" d="
  M 1080.42 988.34
  C 1072.36 985.55 1062.80 981.85 1057.15 976.14
  C 1048.54 967.45 1048.91 954.50 1056.49 945.11
  C 1063.72 936.14 1077.12 933.50 1088.00 934.62
  C 1091.82 935.01 1102.78 936.24 1105.46 939.67
  A 0.96 0.96 0.0 0 1 1105.58 940.66
  L 1102.43 947.48
  A 0.85 0.84 15.1 0 1 1101.58 947.96
  C 1090.91 946.74 1080.58 943.10 1070.82 947.78
  C 1062.58 951.73 1061.94 963.38 1069.14 968.80
  Q 1070.93 970.15 1075.97 971.90
  Q 1087.98 976.09 1092.40 978.32
  C 1104.41 984.39 1111.43 996.45 1108.08 1009.62
  C 1102.20 1032.69 1070.47 1030.53 1053.46 1026.28
  Q 1052.94 1026.15 1053.03 1025.63
  Q 1053.97 1020.40 1056.59 1015.79
  A 1.76 1.75 24.7 0 1 1058.72 1015.01
  C 1067.03 1018.04 1080.70 1020.11 1088.58 1014.84
  Q 1097.09 1009.15 1094.47 998.01
  C 1093.31 993.12 1084.88 989.88 1080.42 988.34
  Z"
/>
<rect fill="#fcfdfd" x="-7.15" y="-47.67" transform="translate(481.27,982.38) rotate(0.2)" width="14.30" height="95.34" rx="6.62"/>
<path fill="#fcfdfd" d="
  M 416.51 1016.34
  Q 420.71 1017.19 425.00 1017.21
  Q 438.37 1017.28 452.66 1017.31
  A 1.97 1.97 0.0 0 1 454.59 1018.89
  C 455.13 1021.59 454.63 1024.24 454.46 1027.18
  Q 454.37 1028.65 452.63 1028.66
  Q 428.69 1028.77 403.53 1028.35
  A 2.42 2.42 0.0 0 1 401.15 1025.92
  Q 401.28 985.55 401.22 944.44
  C 401.21 938.81 402.31 935.33 408.39 934.93
  C 414.36 934.54 415.17 938.13 415.23 943.27
  Q 415.61 977.64 415.71 1012.00
  Q 415.71 1013.85 415.92 1015.70
  Q 415.98 1016.23 416.51 1016.34
  Z"
/>
<path fill="#fcfdfd" d="
  M 851.98 990.76
  Q 851.40 1003.62 851.82 1016.50
  C 851.98 1021.26 850.65 1028.62 844.58 1028.66
  Q 836.84 1028.70 836.77 1019.74
  Q 836.46 978.37 837.38 937.07
  Q 837.42 934.94 839.56 934.93
  Q 853.88 934.92 867.75 935.12
  C 883.06 935.34 896.05 941.93 897.70 958.54
  Q 899.43 975.89 884.17 983.94
  A 0.96 0.96 0.0 0 0 883.77 985.24
  Q 892.79 1002.17 900.79 1019.86
  C 901.62 1021.71 903.60 1025.30 901.68 1027.00
  C 899.51 1028.93 895.28 1028.74 892.50 1028.24
  C 889.39 1027.69 888.28 1026.35 887.21 1023.30
  Q 881.70 1007.64 874.77 994.99
  C 870.74 987.64 859.88 988.40 852.56 990.07
  Q 852.01 990.20 851.98 990.76
  Z
  M 851.67 948.51
  L 851.57 975.27
  A 2.96 2.96 0.0 0 0 854.52 978.24
  L 868.02 978.28
  A 15.24 14.90 -89.8 0 0 882.98 963.09
  L 882.98 960.89
  A 15.24 14.90 -89.8 0 0 868.14 945.60
  L 854.64 945.56
  A 2.96 2.96 0.0 0 0 851.67 948.51
  Z"
/>
<path fill="#fcfdfd" d="
  M 611.34 974.21
  L 640.02 974.50
  Q 642.77 974.53 642.83 977.27
  L 643.01 984.94
  A 1.69 1.68 -0.5 0 1 641.31 986.66
  L 611.13 986.50
  A 1.61 1.60 90.0 0 0 609.52 988.12
  L 609.59 1014.42
  A 1.58 1.58 0.0 0 0 611.14 1015.99
  Q 628.53 1016.33 646.24 1016.24
  C 651.42 1016.22 650.61 1021.95 650.14 1025.20
  C 649.83 1027.37 648.46 1027.84 646.50 1027.88
  Q 624.12 1028.39 601.75 1027.59
  C 599.38 1027.51 596.49 1027.78 596.45 1024.25
  Q 596.05 983.00 596.41 941.74
  C 596.47 934.59 600.53 935.14 606.41 935.23
  Q 635.42 935.65 643.49 935.45
  C 646.15 935.39 647.89 935.38 648.38 938.50
  C 648.80 941.11 649.86 947.46 645.53 947.44
  Q 628.80 947.34 610.69 947.31
  A 1.52 1.52 0.0 0 0 609.16 948.82
  L 609.11 971.96
  Q 609.11 974.19 611.34 974.21
  Z"
/>
<path fill="#fcfdfd" d="
  M 713.38 984.42
  A 0.54 0.54 0.0 0 0 713.51 985.40
  C 719.72 987.17 723.16 991.63 726.07 997.98
  Q 730.82 1008.31 734.70 1018.99
  C 735.63 1021.57 737.37 1026.47 734.18 1027.53
  Q 727.56 1029.73 723.58 1025.98
  Q 721.69 1024.20 719.11 1017.59
  Q 712.90 1001.67 709.96 996.60
  C 705.75 989.33 692.83 990.54 685.65 991.39
  A 1.21 1.20 -3.5 0 0 684.59 992.58
  Q 684.59 1006.90 684.59 1020.78
  C 684.59 1024.79 685.02 1027.95 680.28 1028.09
  Q 675.64 1028.22 672.48 1027.23
  C 671.15 1026.81 670.66 1025.13 670.65 1023.72
  Q 670.28 982.86 670.98 942.00
  C 671.08 936.28 674.00 935.69 679.00 935.57
  C 696.52 935.13 723.50 932.90 730.15 954.19
  Q 733.82 965.91 725.63 975.44
  C 722.54 979.03 717.67 981.82 713.38 984.42
  Z
  M 684.46 947.89
  L 684.42 976.19
  A 1.96 1.96 0.0 0 0 686.37 978.15
  L 698.46 978.18
  A 18.89 14.95 0.1 0 0 717.38 963.26
  L 717.38 960.94
  A 18.89 14.95 0.1 0 0 698.52 945.96
  L 686.43 945.93
  A 1.96 1.96 0.0 0 0 684.46 947.89
  Z"
/>
<path fill="#fcfdfd" d="
  M 532.76 947.09
  Q 532.31 946.96 531.50 946.98
  Q 517.91 947.31 510.00 946.62
  C 504.83 946.16 505.13 939.53 508.01 937.05
  C 509.66 935.62 512.04 935.68 514.27 935.68
  Q 542.01 935.73 569.75 936.00
  C 573.59 936.04 580.64 937.38 576.35 943.09
  Q 573.41 947.01 567.38 947.08
  Q 558.19 947.18 549.66 946.93
  A 1.28 1.27 0.7 0 0 548.35 948.20
  Q 548.21 984.99 548.18 1021.75
  C 548.18 1024.72 548.32 1029.00 545.01 1029.98
  C 541.44 1031.04 536.36 1030.73 534.41 1027.14
  Q 533.57 1025.59 533.55 1021.72
  Q 533.33 985.02 533.48 948.05
  A 1.00 1.00 0.0 0 0 532.76 947.09
  Z"
/>
<rect fill="#fcfdfd" x="-7.45" y="-46.32" transform="translate(931.98,982.02) rotate(-0.2)" width="14.90" height="92.64" rx="5.30"/>
<path fill="#fcfdfd" d="
  M 797.60 1000.34
  Q 782.05 999.86 766.53 1001.01
  A 2.08 2.08 0.0 0 0 764.65 1002.63
  Q 762.88 1010.45 760.74 1018.43
  Q 759.16 1024.34 758.74 1025.08
  C 756.22 1029.49 749.57 1028.81 745.41 1027.19
  Q 744.93 1027.00 744.80 1026.50
  Q 744.36 1024.69 744.73 1023.22
  C 748.56 1008.25 753.69 992.93 757.96 977.28
  Q 762.53 960.54 768.28 944.16
  C 769.05 941.98 770.78 940.95 772.87 940.81
  Q 782.06 940.19 791.25 939.45
  Q 793.67 939.25 794.41 941.74
  Q 805.41 978.88 817.23 1015.79
  Q 818.86 1020.90 818.80 1022.74
  C 818.60 1029.06 808.97 1029.92 805.60 1025.74
  Q 804.37 1024.21 803.18 1019.48
  Q 800.83 1010.17 798.33 1000.92
  Q 798.18 1000.36 797.60 1000.34
  Z
  M 767.40 986.26
  A 2.35 2.35 0.0 0 0 769.61 989.33
  L 792.17 989.64
  A 2.35 2.35 0.0 0 0 794.46 986.64
  L 783.69 949.62
  A 2.35 2.35 0.0 0 0 779.20 949.56
  L 767.40 986.26
  Z"
/>
</svg>
